<?xml version="1.0" encoding="UTF-8"?>
<!DOCTYPE svg PUBLIC "-//W3C//DTD SVG 1.1//EN" "http://www.w3.org/Graphics/SVG/1.1/DTD/svg11.dtd">
<svg xmlns="http://www.w3.org/2000/svg" version="1.1" width="149px" height="152px" style="shape-rendering:geometricPrecision; text-rendering:geometricPrecision; image-rendering:optimizeQuality; fill-rule:evenodd; clip-rule:evenodd" xmlns:xlink="http://www.w3.org/1999/xlink">
<g><path style="opacity:1" fill="#582dcb" d="M -0.5,-0.5 C 49.1667,-0.5 98.8333,-0.5 148.5,-0.5C 148.5,50.1667 148.5,100.833 148.5,151.5C 98.8333,151.5 49.1667,151.5 -0.5,151.5C -0.5,100.833 -0.5,50.1667 -0.5,-0.5 Z"/></g>
<g><path style="opacity:1" fill="#faf8fa" d="M 99.5,65.5 C 101.465,67.7682 102.632,70.4349 103,73.5C 103.499,77.8206 103.666,82.1539 103.5,86.5C 102.363,94.9519 98.3634,101.619 91.5,106.5C 86.2441,108.147 80.9107,109.481 75.5,110.5C 65.1667,110.5 54.8333,110.5 44.5,110.5C 44.5,86.8333 44.5,63.1667 44.5,39.5C 54.1724,39.3335 63.8391,39.5002 73.5,40C 75.6801,42.4177 76.0135,45.0844 74.5,48C 67.9504,49.4204 61.2837,49.9204 54.5,49.5C 54.5,65.8333 54.5,82.1667 54.5,98.5C 62.84,98.6664 71.1733,98.4997 79.5,98C 81.0581,97.79 82.3915,97.29 83.5,96.5C 90.6594,94.057 93.9927,88.8903 93.5,81C 93.7001,78.1345 93.0334,75.6345 91.5,73.5C 91.4894,71.9826 90.8228,70.8159 89.5,70C 87.0427,68.4379 84.376,67.4379 81.5,67C 74.8417,66.5004 68.175,66.3337 61.5,66.5C 61.5,63.1667 61.5,59.8333 61.5,56.5C 65.4885,56.8836 69.1552,56.217 72.5,54.5C 78.2238,52.8894 81.2238,49.0561 81.5,43C 81.664,40.4563 80.9973,38.2897 79.5,36.5C 78.4264,35.1154 77.0931,33.9487 75.5,33C 63.1712,32.5001 50.8378,32.3335 38.5,32.5C 38.5,58.1667 38.5,83.8333 38.5,109.5C 35.1667,109.5 31.8333,109.5 28.5,109.5C 28.5,80.1667 28.5,50.8333 28.5,21.5C 43.1705,21.3334 57.8371,21.5001 72.5,22C 87.0956,24.9232 93.5956,33.7565 92,48.5C 91.2739,51.6207 89.7739,54.2873 87.5,56.5C 92.3432,58.566 96.3432,61.566 99.5,65.5 Z"/></g>
<g><path style="opacity:1" fill="#533a92" d="M 79.5,36.5 C 77.1877,35.6805 74.8543,34.8471 72.5,34C 61.59,33.1804 50.7567,33.3471 40,34.5C 39.8322,59.67 39.3322,84.67 38.5,109.5C 38.5,83.8333 38.5,58.1667 38.5,32.5C 50.8378,32.3335 63.1712,32.5001 75.5,33C 77.0931,33.9487 78.4264,35.1154 79.5,36.5 Z"/></g>
<g><path style="opacity:1" fill="#4f3792" d="M 43.5,39.5 C 43.8333,39.5 44.1667,39.5 44.5,39.5C 44.5,63.1667 44.5,86.8333 44.5,110.5C 54.8333,110.5 65.1667,110.5 75.5,110.5C 75.5,110.833 75.5,111.167 75.5,111.5C 65.8333,111.5 56.1667,111.5 46.5,111.5C 45.5,111.5 44.5,111.5 43.5,111.5C 43.5,87.5 43.5,63.5 43.5,39.5 Z"/></g>
<g><path style="opacity:1" fill="#6646b5" d="M 79.5,36.5 C 80.9973,38.2897 81.664,40.4563 81.5,43C 81.2238,49.0561 78.2238,52.8894 72.5,54.5C 73.0065,53.1411 74.0065,52.1411 75.5,51.5C 74.8333,51.1667 74.1667,50.8333 73.5,50.5C 67.8748,51.4083 62.2081,51.7416 56.5,51.5C 56.5,66.8333 56.5,82.1667 56.5,97.5C 65.5281,97.6805 74.5281,97.3471 83.5,96.5C 82.3915,97.29 81.0581,97.79 79.5,98C 71.1733,98.4997 62.84,98.6664 54.5,98.5C 54.5,82.1667 54.5,65.8333 54.5,49.5C 61.2837,49.9204 67.9504,49.4204 74.5,48C 76.0135,45.0844 75.6801,42.4177 73.5,40C 63.8391,39.5002 54.1724,39.3335 44.5,39.5C 44.6107,38.8826 44.944,38.3826 45.5,38C 55.1667,37.3333 64.8333,37.3333 74.5,38C 77.6329,44.1813 79.2996,43.6813 79.5,36.5 Z"/></g>
<g><path style="opacity:1" fill="#fbfafa" d="M 103.5,44.5 C 112.75,51.6677 118.416,61.0011 120.5,72.5C 120.493,81.2227 119.826,89.8893 118.5,98.5C 114.551,112.081 105.884,121.081 92.5,125.5C 89.1933,126.051 85.8599,126.384 82.5,126.5C 70.1667,126.5 57.8333,126.5 45.5,126.5C 45.5,123.5 45.5,120.5 45.5,117.5C 57.0123,117.828 68.3456,117.495 79.5,116.5C 85.0861,116.194 90.0861,114.527 94.5,111.5C 100.566,109.1 104.566,104.767 106.5,98.5C 108.714,96.0045 109.881,93.0045 110,89.5C 112.533,75.4279 108.533,63.7612 98,54.5C 97.9379,50.8517 98.1046,47.185 98.5,43.5C 100.216,43.6287 101.883,43.962 103.5,44.5 Z"/></g>
<g><path style="opacity:1" fill="#5f3abb" d="M 72.5,54.5 C 69.1552,56.217 65.4885,56.8836 61.5,56.5C 61.5,59.8333 61.5,63.1667 61.5,66.5C 68.175,66.3337 74.8417,66.5004 81.5,67C 84.376,67.4379 87.0427,68.4379 89.5,70C 90.8228,70.8159 91.4894,71.9826 91.5,73.5C 89.3478,71.9217 87.0145,70.5883 84.5,69.5C 76.5277,68.5023 68.5277,68.169 60.5,68.5C 60.5,70.1667 60.5,71.8333 60.5,73.5C 61.5,73.5 62.5,73.5 63.5,73.5C 63.5,74.5 63.5,75.5 63.5,76.5C 62.5,76.5 61.5,76.5 60.5,76.5C 60.719,77.675 60.3857,78.675 59.5,79.5C 58.5021,71.1932 58.1688,62.8599 58.5,54.5C 63.1667,54.5 67.8333,54.5 72.5,54.5 Z"/></g>
<g><path style="opacity:1" fill="#5d3ab6" d="M 103.5,44.5 C 101.883,43.962 100.216,43.6287 98.5,43.5C 98.1046,47.185 97.9379,50.8517 98,54.5C 108.533,63.7612 112.533,75.4279 110,89.5C 109.881,93.0045 108.714,96.0045 106.5,98.5C 108.327,90.5963 108.827,82.5963 108,74.5C 107.577,75.9561 106.744,76.4561 105.5,76C 106.61,73.2628 106.777,70.4294 106,67.5C 105.071,73.9658 104.237,80.2991 103.5,86.5C 103.666,82.1539 103.499,77.8206 103,73.5C 102.632,70.4349 101.465,67.7682 99.5,65.5C 100.496,65.4142 101.329,65.7476 102,66.5C 101.333,64.1667 101.333,61.8333 102,59.5C 100.211,57.771 98.0444,57.1043 95.5,57.5C 96.1667,52.1667 96.8333,46.8333 97.5,41.5C 100.089,41.461 102.089,42.461 103.5,44.5 Z"/></g>
<g><path style="opacity:1" fill="#592dcc" d="M 72.5,54.5 C 67.8333,54.5 63.1667,54.5 58.5,54.5C 58.1688,62.8599 58.5021,71.1932 59.5,79.5C 60.3857,78.675 60.719,77.675 60.5,76.5C 61.5,76.5 62.5,76.5 63.5,76.5C 63.5,75.5 63.5,74.5 63.5,73.5C 62.5,73.5 61.5,73.5 60.5,73.5C 60.5,71.8333 60.5,70.1667 60.5,68.5C 68.5277,68.169 76.5277,68.5023 84.5,69.5C 87.0145,70.5883 89.3478,71.9217 91.5,73.5C 93.0334,75.6345 93.7001,78.1345 93.5,81C 93.9927,88.8903 90.6594,94.057 83.5,96.5C 74.5281,97.3471 65.5281,97.6805 56.5,97.5C 56.5,82.1667 56.5,66.8333 56.5,51.5C 62.2081,51.7416 67.8748,51.4083 73.5,50.5C 74.1667,50.8333 74.8333,51.1667 75.5,51.5C 74.0065,52.1411 73.0065,53.1411 72.5,54.5 Z"/></g>
<g><path style="opacity:1" fill="#593f9a" d="M 120.5,72.5 C 121.648,76.9811 121.815,81.6478 121,86.5C 120.924,90.7964 120.091,94.7964 118.5,98.5C 119.826,89.8893 120.493,81.2227 120.5,72.5 Z"/></g>
<g><path style="opacity:1" fill="#5830c6" d="M 106.5,98.5 C 104.566,104.767 100.566,109.1 94.5,111.5C 92.5454,112.323 90.5454,112.49 88.5,112C 90.9913,111.374 90.9913,110.541 88.5,109.5C 89.7701,108.712 90.7701,107.712 91.5,106.5C 98.3634,101.619 102.363,94.9519 103.5,86.5C 104.237,80.2991 105.071,73.9658 106,67.5C 106.777,70.4294 106.61,73.2628 105.5,76C 106.744,76.4561 107.577,75.9561 108,74.5C 108.827,82.5963 108.327,90.5963 106.5,98.5 Z"/></g>
<g><path style="opacity:1" fill="#5632b8" d="M 43.5,39.5 C 43.5,63.5 43.5,87.5 43.5,111.5C 44.5,111.5 45.5,111.5 46.5,111.5C 46.5,112.5 46.5,113.5 46.5,114.5C 59.85,114.833 73.1833,114.499 86.5,113.5C 82.8946,112.461 79.2279,111.795 75.5,111.5C 75.5,111.167 75.5,110.833 75.5,110.5C 80.9107,109.481 86.2441,108.147 91.5,106.5C 90.7701,107.712 89.7701,108.712 88.5,109.5C 90.9913,110.541 90.9913,111.374 88.5,112C 90.5454,112.49 92.5454,112.323 94.5,111.5C 90.0861,114.527 85.0861,116.194 79.5,116.5C 67.8333,116.5 56.1667,116.5 44.5,116.5C 44.5,120.167 44.5,123.833 44.5,127.5C 43.0027,125.71 42.336,123.544 42.5,121C 42.2397,93.713 42.573,66.5463 43.5,39.5 Z"/></g>
<g><path style="opacity:1" fill="#582ccf" d="M 46.5,111.5 C 56.1667,111.5 65.8333,111.5 75.5,111.5C 79.2279,111.795 82.8946,112.461 86.5,113.5C 73.1833,114.499 59.85,114.833 46.5,114.5C 46.5,113.5 46.5,112.5 46.5,111.5 Z"/></g>
<g><path style="opacity:1" fill="#c2b8d4" d="M 79.5,116.5 C 68.3456,117.495 57.0123,117.828 45.5,117.5C 45.5,120.5 45.5,123.5 45.5,126.5C 57.8333,126.5 70.1667,126.5 82.5,126.5C 82.5,126.833 82.5,127.167 82.5,127.5C 69.8333,127.5 57.1667,127.5 44.5,127.5C 44.5,123.833 44.5,120.167 44.5,116.5C 56.1667,116.5 67.8333,116.5 79.5,116.5 Z"/></g>
<g><path style="opacity:1" fill="#5b4791" d="M 92.5,125.5 C 89.4928,127.175 86.1595,127.841 82.5,127.5C 82.5,127.167 82.5,126.833 82.5,126.5C 85.8599,126.384 89.1933,126.051 92.5,125.5 Z"/></g>
</svg>
