<?xml version="1.0" encoding="UTF-8"?>
<!DOCTYPE svg PUBLIC "-//W3C//DTD SVG 1.1//EN" "http://www.w3.org/Graphics/SVG/1.1/DTD/svg11.dtd">
<svg xmlns="http://www.w3.org/2000/svg" version="1.1" width="200px" height="200px" style="shape-rendering:geometricPrecision; text-rendering:geometricPrecision; image-rendering:optimizeQuality; fill-rule:evenodd; clip-rule:evenodd" xmlns:xlink="http://www.w3.org/1999/xlink">
<g><path style="opacity:1" fill="#fefdfd" d="M -0.5,-0.5 C 66.1667,-0.5 132.833,-0.5 199.5,-0.5C 199.5,66.1667 199.5,132.833 199.5,199.5C 176.5,199.5 153.5,199.5 130.5,199.5C 144.779,193.451 157.112,184.617 167.5,173C 169.329,172.727 170.829,171.893 172,170.5C 180.79,159.59 186.29,147.257 188.5,133.5C 191.985,119.972 192.485,106.305 190,92.5C 189.721,89.5432 188.887,86.8766 187.5,84.5C 187.322,81.7835 186.822,79.1168 186,76.5C 184.152,71.4475 182.152,66.4475 180,61.5C 177.386,59.9435 176.053,57.6102 176,54.5C 173.174,51.5165 170.841,48.1832 169,44.5C 167.223,42.2101 165.056,40.5434 162.5,39.5C 161.5,38.8333 160.5,38.1667 159.5,37.5C 145.358,21.7574 127.691,12.2574 106.5,9C 59.8198,5.08189 26.6531,24.2486 7,66.5C 4.44662,72.99 2.61329,79.6567 1.5,86.5C 0.833333,86.5 0.166667,86.5 -0.5,86.5C -0.5,57.5 -0.5,28.5 -0.5,-0.5 Z"/></g>
<g><path style="opacity:1" fill="#d22e1e" d="M 159.5,37.5 C 156.189,41.1466 152.855,44.8133 149.5,48.5C 153.156,46.3967 156.656,43.3967 160,39.5C 160.374,40.4162 160.874,41.2496 161.5,42C 152.166,52.0244 142.499,61.0244 132.5,69C 131.833,69.6667 131.167,69.6667 130.5,69C 135.384,64.6561 139.384,60.1561 142.5,55.5C 137.655,59.8456 132.988,64.3456 128.5,69C 126.453,69.054 126.453,68.054 128.5,66C 127.833,65.3333 127.167,65.3333 126.5,66C 125.5,68.3333 123.833,70 121.5,71C 123.126,70.8047 124.793,70.8047 126.5,71C 121.593,75.9068 117.093,80.4068 113,84.5C 112.5,84.1667 112,83.8333 111.5,83.5C 112.263,82.2807 113.263,81.2807 114.5,80.5C 113.515,78.9017 113.349,77.235 114,75.5C 118.14,71.3604 122.306,67.1937 126.5,63C 125.833,62.3333 125.167,62.3333 124.5,63C 121.385,65.4457 118.385,67.9457 115.5,70.5C 113.949,66.8101 112.116,66.8101 110,70.5C 109.735,68.8374 110.235,67.3374 111.5,66C 110.5,65.1667 109.5,64.3333 108.5,63.5C 108.709,62.914 109.043,62.414 109.5,62C 108.328,61.6466 107.162,61.8132 106,62.5C 105.5,62.1667 105,61.8333 104.5,61.5C 105.499,59.495 104.832,58.1617 102.5,57.5C 86.1633,57.3334 69.8299,57.5001 53.5,58C 48.2015,59.3985 44.3682,62.5651 42,67.5C 38.4828,80.7868 35.1494,94.1202 32,107.5C 31.5026,110.146 31.3359,112.813 31.5,115.5C 30.0527,116.622 29.0527,118.122 28.5,120C 29.7468,121.458 29.7468,122.958 28.5,124.5C 31.0483,128.263 33.0483,132.263 34.5,136.5C 38.9051,137.639 43.0717,139.306 47,141.5C 49.0217,140.009 50.6883,140.342 52,142.5C 55.4317,143.098 58.765,142.432 62,140.5C 64.2983,141.627 66.4649,141.294 68.5,139.5C 72.2964,140.249 75.9631,140.249 79.5,139.5C 80.5178,140.193 81.5178,140.859 82.5,141.5C 83.7736,142.189 83.7736,143.023 82.5,144C 84.1346,144.54 85.4679,144.04 86.5,142.5C 87.2231,144.164 86.8897,145.831 85.5,147.5C 85.8333,147.833 86.1667,148.167 86.5,148.5C 90.3704,143.957 94.3704,139.457 98.5,135C 97.2559,134.544 96.4226,135.044 96,136.5C 95.9768,129.045 98.8101,122.878 104.5,118C 106.853,118.936 109.186,119.436 111.5,119.5C 110.264,121.311 110.264,123.144 111.5,125C 93.3988,144.271 74.3988,163.438 54.5,182.5C 53.0413,182.567 51.7079,182.234 50.5,181.5C 16.1382,161.485 -0.1951,131.485 1.5,91.5C 1.5,89.8333 1.5,88.1667 1.5,86.5C 2.61329,79.6567 4.44662,72.99 7,66.5C 26.6531,24.2486 59.8198,5.08189 106.5,9C 127.691,12.2574 145.358,21.7574 159.5,37.5 Z"/></g>
<g><path style="opacity:1" fill="#fcf9f8" d="M 102.5,57.5 C 102.5,59.8333 102.5,62.1667 102.5,64.5C 101.516,67.0513 100.516,69.7179 99.5,72.5C 85.5119,73.3328 71.5119,73.8328 57.5,74C 53.8649,85.9363 51.1983,98.1029 49.5,110.5C 51.5,110.5 53.5,110.5 55.5,110.5C 56.1667,110.5 56.8333,110.5 57.5,110.5C 68.5,110.5 79.5,110.5 90.5,110.5C 90.5,111.5 90.5,112.5 90.5,113.5C 89.5655,114.568 89.2322,115.901 89.5,117.5C 88.0762,119.515 87.4095,121.848 87.5,124.5C 72.5781,125.483 57.5781,125.816 42.5,125.5C 40.2166,125.392 38.2166,124.559 36.5,123C 35.3034,120.985 33.9701,119.151 32.5,117.5C 32.6716,116.508 32.3382,115.842 31.5,115.5C 31.3359,112.813 31.5026,110.146 32,107.5C 35.1494,94.1202 38.4828,80.7868 42,67.5C 44.3682,62.5651 48.2015,59.3985 53.5,58C 69.8299,57.5001 86.1633,57.3334 102.5,57.5 Z"/></g>
<g><path style="opacity:1" fill="#aca7a6" d="M 162.5,39.5 C 165.056,40.5434 167.223,42.2101 169,44.5C 170.841,48.1832 173.174,51.5165 176,54.5C 176.053,57.6102 177.386,59.9435 180,61.5C 182.152,66.4475 184.152,71.4475 186,76.5C 186.822,79.1168 187.322,81.7835 187.5,84.5C 188.574,95.4734 188.74,106.473 188,117.5C 187.61,120.104 186.776,122.438 185.5,124.5C 188.46,109.073 187.96,93.7393 184,78.5C 183.617,77.944 183.117,77.6107 182.5,77.5C 178.446,63.3895 171.779,50.7228 162.5,39.5 Z"/></g>
<g><path style="opacity:1" fill="#971f13" d="M 102.5,64.5 C 102.5,64.8333 102.5,65.1667 102.5,65.5C 105.303,69.5956 104.97,73.429 101.5,77C 102.661,79.7207 101.994,82.0541 99.5,84C 94.5249,84.1668 89.6915,84.3334 85,84.5C 82.0496,83.1475 78.8829,82.4808 75.5,82.5C 73.3587,82.6132 71.5253,83.2799 70,84.5C 69.6667,83.5 69.3333,82.5 69,81.5C 67,82.1667 65,82.8333 63,83.5C 62.6667,83.1667 62.3333,82.8333 62,82.5C 60.6667,83.8333 59.3333,85.1667 58,86.5C 57.0753,94.7207 56.2419,102.721 55.5,110.5C 53.5,110.5 51.5,110.5 49.5,110.5C 51.1983,98.1029 53.8649,85.9363 57.5,74C 71.5119,73.8328 85.5119,73.3328 99.5,72.5C 100.516,69.7179 101.516,67.0513 102.5,64.5 Z"/></g>
<g><path style="opacity:1" fill="#ac2417" d="M 102.5,65.5 C 105.109,65.8301 106.776,67.3301 107.5,70C 105.346,75.2648 104.012,80.7648 103.5,86.5C 101.901,86.2322 100.568,86.5655 99.5,87.5C 99.6716,88.4916 99.3382,89.1583 98.5,89.5C 98.719,88.325 98.3857,87.325 97.5,86.5C 89.3743,86.4552 81.541,86.7885 74,87.5C 70.4945,86.5953 66.9945,86.0953 63.5,86C 59.9233,87.8518 58.9233,90.5185 60.5,94C 58.3454,98.0446 57.0121,102.378 56.5,107C 57.3366,108.011 57.67,109.178 57.5,110.5C 56.8333,110.5 56.1667,110.5 55.5,110.5C 56.2419,102.721 57.0753,94.7207 58,86.5C 59.3333,85.1667 60.6667,83.8333 62,82.5C 62.3333,82.8333 62.6667,83.1667 63,83.5C 65,82.8333 67,82.1667 69,81.5C 69.3333,82.5 69.6667,83.5 70,84.5C 71.5253,83.2799 73.3587,82.6132 75.5,82.5C 78.8829,82.4808 82.0496,83.1475 85,84.5C 89.6915,84.3334 94.5249,84.1668 99.5,84C 101.994,82.0541 102.661,79.7207 101.5,77C 104.97,73.429 105.303,69.5956 102.5,65.5 Z"/></g>
<g><path style="opacity:1" fill="#929191" d="M 182.5,77.5 C 183.117,77.6107 183.617,77.944 184,78.5C 187.96,93.7393 188.46,109.073 185.5,124.5C 184.866,131.782 183.032,138.782 180,145.5C 176.727,149.052 174.227,153.052 172.5,157.5C 166.804,164.197 160.47,170.197 153.5,175.5C 158.13,170.369 162.963,165.369 168,160.5C 172.554,153.891 176.72,147.058 180.5,140C 182.743,131.375 184.743,122.708 186.5,114C 185.293,112.7 184.626,111.2 184.5,109.5C 184.763,98.7596 184.097,88.0929 182.5,77.5 Z"/></g>
<g><path style="opacity:1" fill="#d12e1e" d="M 159.5,37.5 C 160.5,38.1667 161.5,38.8333 162.5,39.5C 171.779,50.7228 178.446,63.3895 182.5,77.5C 184.097,88.0929 184.763,98.7596 184.5,109.5C 174.64,160.624 143.64,187.957 91.5,191.5C 78.2486,191.77 65.9152,188.77 54.5,182.5C 74.3988,163.438 93.3988,144.271 111.5,125C 110.264,123.144 110.264,121.311 111.5,119.5C 109.186,119.436 106.853,118.936 104.5,118C 98.8101,122.878 95.9768,129.045 96,136.5C 96.4226,135.044 97.2559,134.544 98.5,135C 94.3704,139.457 90.3704,143.957 86.5,148.5C 86.1667,148.167 85.8333,147.833 85.5,147.5C 86.8897,145.831 87.2231,144.164 86.5,142.5C 85.4679,144.04 84.1346,144.54 82.5,144C 83.7736,143.023 83.7736,142.189 82.5,141.5C 82.6107,140.883 82.944,140.383 83.5,140C 88.4883,140.515 91.8216,138.515 93.5,134C 93.2645,133.127 92.9312,132.293 92.5,131.5C 93.2357,128.647 94.2357,125.814 95.5,123C 95.5066,121.188 94.84,119.688 93.5,118.5C 94.5042,116.323 93.8375,115.989 91.5,117.5C 90.5713,116.311 90.238,114.978 90.5,113.5C 90.5,112.5 90.5,111.5 90.5,110.5C 79.5,110.5 68.5,110.5 57.5,110.5C 57.67,109.178 57.3366,108.011 56.5,107C 57.0121,102.378 58.3454,98.0446 60.5,94C 58.9233,90.5185 59.9233,87.8518 63.5,86C 66.9945,86.0953 70.4945,86.5953 74,87.5C 81.541,86.7885 89.3743,86.4552 97.5,86.5C 98.3857,87.325 98.719,88.325 98.5,89.5C 97.2073,93.3837 96.5407,97.3837 96.5,101.5C 96.5,101.833 96.5,102.167 96.5,102.5C 96.9175,103.222 97.5842,103.722 98.5,104C 97.4841,105.677 96.4841,107.343 95.5,109C 96.2335,110.766 96.5668,112.599 96.5,114.5C 98.1238,114.36 99.2904,115.027 100,116.5C 101.822,114.955 103.989,114.288 106.5,114.5C 109.486,114.382 112.152,115.048 114.5,116.5C 111.346,129.45 108.346,142.45 105.5,155.5C 105.186,158.564 104.186,161.397 102.5,164C 103.886,167.389 106.386,169.223 110,169.5C 115.088,168.467 120.255,167.633 125.5,167C 126.83,162.517 128.83,158.35 131.5,154.5C 131.045,151.515 131.045,148.682 131.5,146C 132.5,143.667 133.5,141.333 134.5,139C 133.244,138.583 132.577,137.75 132.5,136.5C 132.953,135.542 133.619,134.708 134.5,134C 134.167,133.667 133.833,133.333 133.5,133C 134.24,131.215 134.907,129.382 135.5,127.5C 134.515,125.902 134.349,124.235 135,122.5C 135.848,119.62 137.348,117.12 139.5,115C 143.857,114.735 148.024,114.902 152,115.5C 158.387,114.114 162.554,110.28 164.5,104C 163.233,102.204 163.233,100.371 164.5,98.5C 162.626,96.1836 160.96,93.8503 159.5,91.5C 159.5,90.5 159.5,89.5 159.5,88.5C 160.043,88.44 160.376,88.1067 160.5,87.5C 141.512,86.5004 122.512,86.1671 103.5,86.5C 104.012,80.7648 105.346,75.2648 107.5,70C 106.776,67.3301 105.109,65.8301 102.5,65.5C 102.5,65.1667 102.5,64.8333 102.5,64.5C 102.5,62.1667 102.5,59.8333 102.5,57.5C 104.832,58.1617 105.499,59.495 104.5,61.5C 105,61.8333 105.5,62.1667 106,62.5C 107.162,61.8132 108.328,61.6466 109.5,62C 109.043,62.414 108.709,62.914 108.5,63.5C 109.5,64.3333 110.5,65.1667 111.5,66C 110.235,67.3374 109.735,68.8374 110,70.5C 112.116,66.8101 113.949,66.8101 115.5,70.5C 118.385,67.9457 121.385,65.4457 124.5,63C 125.167,62.3333 125.833,62.3333 126.5,63C 122.306,67.1937 118.14,71.3604 114,75.5C 113.349,77.235 113.515,78.9017 114.5,80.5C 113.263,81.2807 112.263,82.2807 111.5,83.5C 112,83.8333 112.5,84.1667 113,84.5C 117.093,80.4068 121.593,75.9068 126.5,71C 124.793,70.8047 123.126,70.8047 121.5,71C 123.833,70 125.5,68.3333 126.5,66C 127.167,65.3333 127.833,65.3333 128.5,66C 126.453,68.054 126.453,69.054 128.5,69C 132.988,64.3456 137.655,59.8456 142.5,55.5C 139.384,60.1561 135.384,64.6561 130.5,69C 131.167,69.6667 131.833,69.6667 132.5,69C 142.499,61.0244 152.166,52.0244 161.5,42C 160.874,41.2496 160.374,40.4162 160,39.5C 156.656,43.3967 153.156,46.3967 149.5,48.5C 152.855,44.8133 156.189,41.1466 159.5,37.5 Z"/></g>
<g><path style="opacity:1" fill="#a32215" d="M 159.5,91.5 C 160.96,93.8503 162.626,96.1836 164.5,98.5C 163.233,100.371 163.233,102.204 164.5,104C 162.554,110.28 158.387,114.114 152,115.5C 148.024,114.902 143.857,114.735 139.5,115C 137.348,117.12 135.848,119.62 135,122.5C 134.349,124.235 134.515,125.902 135.5,127.5C 134.907,129.382 134.24,131.215 133.5,133C 133.833,133.333 134.167,133.667 134.5,134C 133.619,134.708 132.953,135.542 132.5,136.5C 131.728,137.694 130.728,138.694 129.5,139.5C 128.448,136.277 129.114,133.277 131.5,130.5C 130.975,129.808 130.308,129.308 129.5,129C 130.453,127.045 131.787,125.378 133.5,124C 132.24,122.186 132.24,120.353 133.5,118.5C 135.887,114.447 139.22,111.447 143.5,109.5C 144.696,109.846 144.696,110.346 143.5,111C 152.076,112.557 156.742,109.057 157.5,100.5C 157.215,97.1709 157.882,94.1709 159.5,91.5 Z"/></g>
<g><path style="opacity:1" fill="#9c2114" d="M 96.5,102.5 C 103.5,102.5 110.5,102.5 117.5,102.5C 117.5,103.833 117.5,105.167 117.5,106.5C 116.87,110.048 115.87,113.381 114.5,116.5C 112.152,115.048 109.486,114.382 106.5,114.5C 103.989,114.288 101.822,114.955 100,116.5C 99.2904,115.027 98.1238,114.36 96.5,114.5C 96.5668,112.599 96.2335,110.766 95.5,109C 96.4841,107.343 97.4841,105.677 98.5,104C 97.5842,103.722 96.9175,103.222 96.5,102.5 Z"/></g>
<g><path style="opacity:1" fill="#982114" d="M 157.5,100.5 C 156.742,109.057 152.076,112.557 143.5,111C 144.696,110.346 144.696,109.846 143.5,109.5C 139.22,111.447 135.887,114.447 133.5,118.5C 132.24,120.353 132.24,122.186 133.5,124C 131.787,125.378 130.453,127.045 129.5,129C 130.308,129.308 130.975,129.808 131.5,130.5C 129.114,133.277 128.448,136.277 129.5,139.5C 128.734,145.166 127.901,150.832 127,156.5C 124.904,157.715 125.071,158.549 127.5,159C 124.355,160.978 121.688,163.478 119.5,166.5C 117.5,165.167 115.5,165.167 113.5,166.5C 106.7,164.596 105.367,160.929 109.5,155.5C 113.997,156.055 118.164,155.389 122,153.5C 125.584,136.745 129.584,120.079 134,103.5C 142.021,103.123 149.855,102.123 157.5,100.5 Z"/></g>
<g><path style="opacity:1" fill="#c8a19f" d="M 96.5,102.5 C 96.5,102.167 96.5,101.833 96.5,101.5C 103.833,101.5 111.167,101.5 118.5,101.5C 118.784,103.415 118.451,105.081 117.5,106.5C 117.5,105.167 117.5,103.833 117.5,102.5C 110.5,102.5 103.5,102.5 96.5,102.5 Z"/></g>
<g><path style="opacity:1" fill="#fcfbfa" d="M 99.5,87.5 C 119.674,87.1695 139.674,87.5029 159.5,88.5C 159.5,89.5 159.5,90.5 159.5,91.5C 157.882,94.1709 157.215,97.1709 157.5,100.5C 149.855,102.123 142.021,103.123 134,103.5C 129.584,120.079 125.584,136.745 122,153.5C 118.164,155.389 113.997,156.055 109.5,155.5C 108.167,155.5 106.833,155.5 105.5,155.5C 108.346,142.45 111.346,129.45 114.5,116.5C 115.87,113.381 116.87,110.048 117.5,106.5C 118.451,105.081 118.784,103.415 118.5,101.5C 111.167,101.5 103.833,101.5 96.5,101.5C 96.5407,97.3837 97.2073,93.3837 98.5,89.5C 99.3382,89.1583 99.6716,88.4916 99.5,87.5 Z"/></g>
<g><path style="opacity:1" fill="#e5b3af" d="M 99.5,87.5 C 100.568,86.5655 101.901,86.2322 103.5,86.5C 122.512,86.1671 141.512,86.5004 160.5,87.5C 160.376,88.1067 160.043,88.44 159.5,88.5C 139.674,87.5029 119.674,87.1695 99.5,87.5 Z"/></g>
<g><path style="opacity:1" fill="#fefefe" d="M -0.5,131.5 C 2.13297,137.425 3.9663,143.758 5,150.5C 16.0154,172.349 32.5154,188.682 54.5,199.5C 36.1667,199.5 17.8333,199.5 -0.5,199.5C -0.5,176.833 -0.5,154.167 -0.5,131.5 Z"/></g>
<g><path style="opacity:1" fill="#b32618" d="M 90.5,113.5 C 90.238,114.978 90.5713,116.311 91.5,117.5C 93.8375,115.989 94.5042,116.323 93.5,118.5C 94.84,119.688 95.5066,121.188 95.5,123C 94.2357,125.814 93.2357,128.647 92.5,131.5C 92.9312,132.293 93.2645,133.127 93.5,134C 91.8216,138.515 88.4883,140.515 83.5,140C 82.944,140.383 82.6107,140.883 82.5,141.5C 81.5178,140.859 80.5178,140.193 79.5,139.5C 75.9631,140.249 72.2964,140.249 68.5,139.5C 66.4649,141.294 64.2983,141.627 62,140.5C 58.765,142.432 55.4317,143.098 52,142.5C 50.6883,140.342 49.0217,140.009 47,141.5C 43.0717,139.306 38.9051,137.639 34.5,136.5C 33.0483,132.263 31.0483,128.263 28.5,124.5C 29.7468,122.958 29.7468,121.458 28.5,120C 29.0527,118.122 30.0527,116.622 31.5,115.5C 32.3382,115.842 32.6716,116.508 32.5,117.5C 30.2515,126.607 33.4181,132.941 42,136.5C 46.5326,137.069 51.0326,137.736 55.5,138.5C 66.0011,137.613 76.3344,137.113 86.5,137C 88.9724,135.399 89.9724,133.399 89.5,131C 93.4059,126.47 93.4059,121.97 89.5,117.5C 89.2322,115.901 89.5655,114.568 90.5,113.5 Z"/></g>
<g><path style="opacity:1" fill="#991f12" d="M 32.5,117.5 C 33.9701,119.151 35.3034,120.985 36.5,123C 38.2166,124.559 40.2166,125.392 42.5,125.5C 49.8257,126.166 57.3257,126.5 65,126.5C 72.8644,126.497 80.3644,125.831 87.5,124.5C 87.4095,121.848 88.0762,119.515 89.5,117.5C 93.4059,121.97 93.4059,126.47 89.5,131C 89.9724,133.399 88.9724,135.399 86.5,137C 76.3344,137.113 66.0011,137.613 55.5,138.5C 51.0326,137.736 46.5326,137.069 42,136.5C 33.4181,132.941 30.2515,126.607 32.5,117.5 Z"/></g>
<g><path style="opacity:1" fill="#dfc9c6" d="M 87.5,124.5 C 80.3644,125.831 72.8644,126.497 65,126.5C 57.3257,126.5 49.8257,126.166 42.5,125.5C 57.5781,125.816 72.5781,125.483 87.5,124.5 Z"/></g>
<g><path style="opacity:1" fill="#868180" d="M 184.5,109.5 C 184.626,111.2 185.293,112.7 186.5,114C 184.743,122.708 182.743,131.375 180.5,140C 176.72,147.058 172.554,153.891 168,160.5C 162.963,165.369 158.13,170.369 153.5,175.5C 148.089,178.717 142.756,182.217 137.5,186C 108.439,197.868 79.7728,197.035 51.5,183.5C 50.7025,183.043 50.3691,182.376 50.5,181.5C 51.7079,182.234 53.0413,182.567 54.5,182.5C 65.9152,188.77 78.2486,191.77 91.5,191.5C 143.64,187.957 174.64,160.624 184.5,109.5 Z"/></g>
<g><path style="opacity:1" fill="#bab8b8" d="M 1.5,91.5 C -0.1951,131.485 16.1382,161.485 50.5,181.5C 50.3691,182.376 50.7025,183.043 51.5,183.5C 79.7728,197.035 108.439,197.868 137.5,186C 142.756,182.217 148.089,178.717 153.5,175.5C 160.47,170.197 166.804,164.197 172.5,157.5C 164.925,174.241 152.592,186.074 135.5,193C 130.272,194.974 124.938,196.641 119.5,198C 118.944,198.383 118.611,198.883 118.5,199.5C 101.833,199.5 85.1667,199.5 68.5,199.5C 51.0897,194.652 36.2563,185.319 24,171.5C 21.0662,165.967 17.3996,160.967 13,156.5C 10.7864,149.983 8.11974,143.65 5,137.5C 0.644861,122.267 -0.521806,106.934 1.5,91.5 Z"/></g>
<g><path style="opacity:1" fill="#d0d0d0" d="M 187.5,84.5 C 188.887,86.8766 189.721,89.5432 190,92.5C 192.485,106.305 191.985,119.972 188.5,133.5C 184.827,140.355 181.494,147.521 178.5,155C 174.934,159.567 171.767,164.401 169,169.5C 157.028,182.877 142.862,192.877 126.5,199.5C 123.833,199.5 121.167,199.5 118.5,199.5C 118.611,198.883 118.944,198.383 119.5,198C 124.938,196.641 130.272,194.974 135.5,193C 152.592,186.074 164.925,174.241 172.5,157.5C 174.227,153.052 176.727,149.052 180,145.5C 183.032,138.782 184.866,131.782 185.5,124.5C 186.776,122.438 187.61,120.104 188,117.5C 188.74,106.473 188.574,95.4734 187.5,84.5 Z"/></g>
<g><path style="opacity:1" fill="#b22518" d="M 132.5,136.5 C 132.577,137.75 133.244,138.583 134.5,139C 133.5,141.333 132.5,143.667 131.5,146C 131.045,148.682 131.045,151.515 131.5,154.5C 128.83,158.35 126.83,162.517 125.5,167C 120.255,167.633 115.088,168.467 110,169.5C 106.386,169.223 103.886,167.389 102.5,164C 104.186,161.397 105.186,158.564 105.5,155.5C 106.833,155.5 108.167,155.5 109.5,155.5C 105.367,160.929 106.7,164.596 113.5,166.5C 115.5,165.167 117.5,165.167 119.5,166.5C 121.688,163.478 124.355,160.978 127.5,159C 125.071,158.549 124.904,157.715 127,156.5C 127.901,150.832 128.734,145.166 129.5,139.5C 130.728,138.694 131.728,137.694 132.5,136.5 Z"/></g>
<g><path style="opacity:1" fill="#eaeaea" d="M 188.5,133.5 C 186.29,147.257 180.79,159.59 172,170.5C 170.829,171.893 169.329,172.727 167.5,173C 157.112,184.617 144.779,193.451 130.5,199.5C 129.167,199.5 127.833,199.5 126.5,199.5C 142.862,192.877 157.028,182.877 169,169.5C 171.767,164.401 174.934,159.567 178.5,155C 181.494,147.521 184.827,140.355 188.5,133.5 Z"/></g>
<g><path style="opacity:1" fill="#e8e8e8" d="M -0.5,86.5 C 0.166667,86.5 0.833333,86.5 1.5,86.5C 1.5,88.1667 1.5,89.8333 1.5,91.5C -0.521806,106.934 0.644861,122.267 5,137.5C 8.11974,143.65 10.7864,149.983 13,156.5C 17.3996,160.967 21.0662,165.967 24,171.5C 36.2563,185.319 51.0897,194.652 68.5,199.5C 63.8333,199.5 59.1667,199.5 54.5,199.5C 32.5154,188.682 16.0154,172.349 5,150.5C 3.9663,143.758 2.13297,137.425 -0.5,131.5C -0.5,116.5 -0.5,101.5 -0.5,86.5 Z"/></g>
</svg>
