<?xml version="1.0" encoding="UTF-8"?>
<!DOCTYPE svg PUBLIC "-//W3C//DTD SVG 1.1//EN" "http://www.w3.org/Graphics/SVG/1.1/DTD/svg11.dtd">
<svg xmlns="http://www.w3.org/2000/svg" version="1.1" width="192px" height="192px" style="shape-rendering:geometricPrecision; text-rendering:geometricPrecision; image-rendering:optimizeQuality; fill-rule:evenodd; clip-rule:evenodd" xmlns:xlink="http://www.w3.org/1999/xlink">
<g><path style="opacity:0.009" fill="#fefffe" d="M 24.5,20.5 C 22.0248,20.2533 22.0248,19.5866 24.5,18.5C 25.463,18.9698 25.463,19.6365 24.5,20.5 Z"/></g>
<g><path style="opacity:0.992" fill="#fbfbfb" d="M 166.5,20.5 C 167.643,22.4999 169.143,23.1666 171,22.5C 172.039,23.2438 172.539,24.2438 172.5,25.5C 171.075,23.9689 170.409,24.3023 170.5,26.5C 170.667,71.8346 170.5,117.168 170,162.5C 169.31,165.196 167.81,167.363 165.5,169C 119.892,170.651 74.2256,170.985 28.5,170C 25.0418,168.361 22.0418,166.195 19.5,163.5C 18.1715,117.846 18.1715,72.179 19.5,26.5C 20.9063,26.0269 21.573,25.0269 21.5,23.5C 22.8333,22.8333 23.8333,21.8333 24.5,20.5C 26.1789,20.1077 27.8455,19.6077 29.5,19C 73.5,18.3333 117.5,18.3333 161.5,19C 163.154,19.6077 164.821,20.1077 166.5,20.5 Z"/></g>
<g><path style="opacity:0.009" fill="#fefffe" d="M 166.5,20.5 C 165.632,18.1081 166.299,17.9414 168.5,20C 167.906,20.4643 167.239,20.631 166.5,20.5 Z"/></g>
<g><path style="opacity:0.009" fill="#fefffe" d="M 20.5,23.5 C 20.1667,24.1667 19.8333,24.8333 19.5,25.5C 19.1667,25.5 18.8333,25.5 18.5,25.5C 18.369,24.7611 18.5357,24.0944 19,23.5C 19.69,22.2617 20.19,22.2617 20.5,23.5 Z"/></g>
<g><path style="opacity:0.251" fill="#666666" d="M 20.5,23.5 C 20.8333,23.5 21.1667,23.5 21.5,23.5C 21.573,25.0269 20.9063,26.0269 19.5,26.5C 19.5,26.1667 19.5,25.8333 19.5,25.5C 19.8333,24.8333 20.1667,24.1667 20.5,23.5 Z"/></g>
<g><path style="opacity:0.062" fill="#151515" d="M 172.5,25.5 C 173.6,27.2774 174.434,29.2774 175,31.5C 175.667,77.1667 175.667,122.833 175,168.5C 172.542,175.314 167.709,179.147 160.5,180C 117.167,180.667 73.8333,180.667 30.5,180C 24.3135,179.162 19.8135,175.996 17,170.5C 15.3486,124.559 15.0153,78.5589 16,32.5C 16.3903,29.8958 17.2237,27.5625 18.5,25.5C 18.5,26.1667 18.8333,26.5 19.5,26.5C 18.1715,72.179 18.1715,117.846 19.5,163.5C 21.4385,167.936 24.7719,170.769 29.5,172C 73.5,172.667 117.5,172.667 161.5,172C 167,170.5 170.5,167 172,161.5C 172.667,117.5 172.667,73.5 172,29.5C 171.768,28.2625 171.268,27.2625 170.5,26.5C 170.409,24.3023 171.075,23.9689 172.5,25.5 Z"/></g>
<g><path style="opacity:1" fill="#0fcef2" d="M 95.5,43.5 C 95.5,70.5 95.5,97.5 95.5,124.5C 81.148,131.76 66.9813,139.427 53,147.5C 52.3333,122.5 52.3333,97.5 53,72.5C 67.2822,62.947 81.4488,53.2803 95.5,43.5 Z"/></g>
<g><path style="opacity:1" fill="#161625" d="M 95.5,43.5 C 109.482,53.1413 123.482,62.8079 137.5,72.5C 138.666,97.4933 138.833,122.493 138,147.5C 124.019,139.427 109.852,131.76 95.5,124.5C 95.5,97.5 95.5,70.5 95.5,43.5 Z"/></g>
<g><path style="opacity:0.984" fill="#adadad" d="M 170.5,26.5 C 171.268,27.2625 171.768,28.2625 172,29.5C 172.667,73.5 172.667,117.5 172,161.5C 170.5,167 167,170.5 161.5,172C 117.5,172.667 73.5,172.667 29.5,172C 24.7719,170.769 21.4385,167.936 19.5,163.5C 22.0418,166.195 25.0418,168.361 28.5,170C 74.2256,170.985 119.892,170.651 165.5,169C 167.81,167.363 169.31,165.196 170,162.5C 170.5,117.168 170.667,71.8346 170.5,26.5 Z"/></g>
</svg>
